{"title":"Venus And Vegas 2010 DVDRIP XViD - IMAGiNE","uid":6504446,"size":1279945074,"categoryP":"video","categoryS":"movies","magnet":"?xt=urn:btih:c15399358a9bf75a3c7cf55e5acdcd3d0570f756&amp;dn=Venus+And+Vegas+2010+DVDRIP+XViD+-+IMAGiNE&amp;tr=udp%3A%2F%2Ftracker.openbittorrent.com%3A80&amp;tr=udp%3A%2F%2Fopen.demonii.com%3A1337&amp;tr=udp%3A%2F%2Ftracker.coppersurfer.tk%3A6969&amp;tr=udp%3A%2F%2Fexodus.desync.com%3A6969","seeders":1,"leechers":0,"uploader":"HeroMaster","files":-1,"time":1309373188,"description":"Venus &amp; Vegas DVDRIP XViD - IMAGiNE\n\n\nRipper ...........:IMAGiNE                                         \nIMDB Rating.......:6.1/10                            \nVideo Codec.......:XVID                                            \nRelease Date......:N/A\nAudio Codec.......:AC-3                                            \nTheatre Date......:N/A\nAudio Bitrate.....:448                                             \nRuntime...........:1h 35mn\nSubtitles.........:NIL                                             \nLanguage..........:ENGLISH\nResolution........:720 x 400                                       \nIMDb URL..........:http://www.imdb.com/title/tt0423474/\n\n\nDETAILS:\n\nVideo\nID                               : 0\nFormat                           : MPEG-4 Visual\nFormat profile                   : Advanced Simple@L5\nFormat settings, BVOP            : Yes\nFormat settings, QPel            : No\nFormat settings, GMC             : No warppoints\nFormat settings, Matrix          : Default (H.263)\nMuxing mode                      : Packed bitstream\nCodec ID                         : XVID\nCodec ID/Hint                    : XviD\nDuration                         : 1h 35mn\nBit rate                         : 1 302 Kbps\nWidth                            : 720 pixels\nHeight                           : 400 pixels\nDisplay aspect ratio             : 16:9\nFrame rate                       : 25.000 fps\nColor space                      : YUV\nChroma subsampling               : 4:2:0\nBit depth                        : 8 bits\nScan type                        : Progressive\nCompression mode                 : Lossy\nBits/(Pixel*Frame)               : 0.181\nStream size                      : 891 MiB (74%)\nWriting library                  : XviD 58\n\n\nAudio\nID                               : 1\nFormat                           : AC-3\nFormat/Info                      : Audio Coding 3\nMode extension                   : CM (complete main)\nCodec ID                         : 2000\nDuration                         : 1h 35mn\nBit rate mode                    : Constant\nBit rate                         : 448 Kbps\nChannel(s)                       : 6 channels\nChannel positions                : Front: L C R, Side: L R, LFE\nSampling rate                    : 48.0 KHz\nBit depth                        : 16 bits\nCompression mode                 : Lossy\nStream size                      : 306 MiB (25%)\nAlignment                        : Aligned on interleaves\nInterleave, duration             : 40 ms (1.00 video frame)\nInterleave, preload duration     : 512 ms\n\n\nSOURCES:\n\nVIDEO: Thankd m8ty ;-)\nAUDIO: Thankd m8ty ;-)\n\n\nNOTES:\n\nHere we go with a nice dvdrip.....source was really nice as you would expect \nso we just ripped it.\n\nAudio we just remuxed AC3 back to our encode.;-)\n\n\nEnjoy folks ;-)\n\n\nScreens:\n\n &lt;a href=&quot;\nhttp://leetleech.org/images/47548547521082362173.jpg&quot; rel=&quot;nofollow&quot; target=&quot;_NEW&quot;&gt;\nhttp://leetleech.org/images/47548547521082362173.jpg&lt;/a&gt;\n &lt;a href=&quot;\nhttp://leetleech.org/images/97193800166685302207.jpg&quot; rel=&quot;nofollow&quot; target=&quot;_NEW&quot;&gt;\nhttp://leetleech.org/images/97193800166685302207.jpg&lt;/a&gt;\n &lt;a href=&quot;\nhttp://leetleech.org/images/60301777402340693248.jpg&quot; rel=&quot;nofollow&quot; target=&quot;_NEW&quot;&gt;\nhttp://leetleech.org/images/60301777402340693248.jpg&lt;/a&gt;\n\n\nENJOY!","torrent":{"xt":"urn:btih:c15399358a9bf75a3c7cf55e5acdcd3d0570f756","amp;dn":"Venus+And+Vegas+2010+DVDRIP+XViD+-+IMAGiNE","amp;tr":["udp%3A%2F%2Ftracker.openbittorrent.com%3A80","udp%3A%2F%2Fopen.demonii.com%3A1337","udp%3A%2F%2Ftracker.coppersurfer.tk%3A6969","udp%3A%2F%2Fexodus.desync.com%3A6969"],"infoHash":"c15399358a9bf75a3c7cf55e5acdcd3d0570f756","infoHashBuffer":{"type":"Buffer","data":[193,83,153,53,138,155,247,90,60,124,245,94,90,205,205,61,5,112,247,86]},"announce":[],"urlList":[]}}